<?xml version="1.0" encoding="UTF-8" standalone="no"?>
<!-- Created with Inkscape (http://www.inkscape.org/) -->

<svg
   width="512"
   height="512"
   viewBox="0 0 135.46666 135.46667"
   version="1.1"
   id="svg5"
   xmlns="http://www.w3.org/2000/svg"
   xmlns:svg="http://www.w3.org/2000/svg">
  <defs
     id="defs2">
    <style
       id="style2">.cls-1{fill:#fff;}.cls-2{fill:none;}.cls-3{fill:#f0b01f;}.cls-4{mask:url(#mask);}.cls-5{clip-path:url(#clip-path);}</style>
  </defs>
  <g
     id="layer1"
     transform="translate(83.077571,-60.132913)">
    <g
       id="g6682"
       data-name="Layer 2"
       transform="matrix(0.26458463,0,0,0.26458333,-83.077902,60.132913)">
      <ellipse
         style="display:inline;fill:#000000;stroke:none;stroke-width:7.10861;stroke-linecap:round;stroke-linejoin:round;paint-order:stroke markers fill"
         id="circle6678"
         cx="256"
         cy="256"
         rx="255.99875"
         ry="256" />
      <path
         id="path6680"
         style="display:inline;fill:#ffffff;stroke:none;stroke-width:4.31247;stroke-linecap:round;stroke-linejoin:round;paint-order:stroke markers fill"
         d="m 251.2429,100.7857 c -21.49379,0.65869 -42.61657,5.77384 -62.03043,15.02148 l 0.01,0.003 c 6.35869,1.75488 12.41553,4.45869 17.96673,8.02192 1.21355,0.75285 2.42137,1.54502 3.62369,2.37652 0.41614,0.2884 0.82343,0.58951 1.23497,0.88425 5.44177,-1.85546 10.99474,-3.36644 16.62748,-4.52012 0.47893,-0.58764 0.96257,-1.17116 1.45299,-1.74954 1.12365,-1.34839 2.30119,-2.68505 3.53159,-4.01096 5.35837,-5.87097 11.24844,-11.22973 17.58352,-16.02625 z m 9.51554,0 c 6.33476,4.79635 12.22404,10.15555 17.58216,16.02625 1.23041,1.32591 2.40795,2.66257 3.5316,4.01096 0.49188,0.5801 0.97673,1.16554 1.45705,1.75497 5.63146,1.15324 11.18501,2.65978 16.62613,4.5147 0.41095,-0.29432 0.81673,-0.59628 1.23227,-0.88425 1.20231,-0.83152 2.41013,-1.62367 3.62368,-2.37652 5.5512,-3.56324 11.60804,-6.26704 17.96673,-8.02192 l 0.01,-0.003 C 303.37443,106.55946 282.25193,101.44441 260.75844,100.7857 Z M 256,102.53661 c -6.9918,5.01311 -13.43235,10.75348 -19.21389,17.12445 -4.90269,5.30167 -9.29338,11.0548 -13.11349,17.18268 -0.53093,0.84274 -1.04454,1.68512 -1.55861,2.61213 -0.51407,0.92702 -1.00379,1.76999 -1.48414,2.67172 -6.06776,11.33488 -10.20452,24.71871 -9.34492,39.60994 -11.54555,-13.79567 -23.06574,-20.11739 -34.24891,-21.61748 -0.986,-0.13484 -1.96361,-0.22706 -2.9412,-0.2776 -0.84274,-0.059 -1.68543,-0.084 -2.52817,-0.084 h -0.43061 c -5.08458,0.10567 -10.12212,0.99825 -14.93346,2.64599 -11.05675,3.67436 -21.57452,10.72844 -31.18178,18.16986 5.22755,0.0627 10.41562,0.91502 15.38844,2.52817 7.45221,2.44533 14.55676,5.84444 21.13677,10.11272 0.003,0.002 0.007,0.004 0.01,0.006 2.59739,-1.46023 5.28509,-2.75413 8.0463,-3.87419 0.96916,-0.40452 1.93007,-0.76623 2.89921,-1.11175 0.96915,-0.34552 1.94631,-0.6573 2.91546,-0.94384 4.74959,-1.44341 9.68376,-2.19281 14.64774,-2.22485 9.49637,0.0179 18.7616,2.92782 26.56281,8.34286 0.88206,0.59554 1.75891,1.22722 2.62973,1.89579 0.84274,0.62363 1.68484,1.29007 2.4686,1.98112 0.5004,0.41836 1.00098,0.82262 1.49362,1.29455 6.9e-4,-0.38078 0.0194,-0.76076 0.0475,-1.13748 0.0284,-0.38344 0.0653,-0.76366 0.0948,-1.1429 0.0421,-0.61098 0.0921,-1.21619 0.14895,-1.81454 0.0568,-0.59834 0.12084,-1.19092 0.18822,-1.77664 l 0.0475,-0.0257 c 0.13405,-1.16192 0.3,-2.4989 0.49156,-3.63992 1.50691,-10.11008 4.93978,-19.83608 10.11272,-28.65225 0.59834,-1.01129 1.19694,-1.9728 1.80371,-2.88296 0.3708,-0.5815 0.75012,-1.13813 1.12935,-1.6859 0.2444,-0.34553 0.48007,-0.68152 0.72447,-1.01019 7.66005,-10.58496 15.47248,-15.44755 15.80958,-15.6498 l 2.1828,-1.34886 2.18288,1.34872 c 0.33709,0.20226 8.1496,5.06471 15.80957,15.6498 0.2444,0.32867 0.48007,0.66466 0.72447,1.01019 0.37923,0.54777 0.75856,1.1044 1.12936,1.6859 0.60677,0.91016 1.20536,1.87167 1.80371,2.88296 5.17294,8.81618 8.60581,18.54217 10.11272,28.65225 0.19155,1.14102 0.35751,2.478 0.49155,3.63992 l 0.0475,0.0257 c 0.0674,0.58571 0.13137,1.17829 0.18823,1.77663 0.0569,0.59835 0.10679,1.20356 0.14895,1.81455 0.0294,0.37923 0.0663,0.75945 0.0948,1.14289 0.0279,0.37672 0.0467,0.7567 0.0475,1.13748 0.49263,-0.47193 0.99321,-0.87618 1.49362,-1.29455 0.78375,-0.69105 1.62586,-1.35749 2.46859,-1.98111 0.87083,-0.66858 1.74767,-1.30026 2.62974,-1.89579 7.80121,-5.41505 17.06644,-8.32498 26.56281,-8.34286 4.96397,0.032 9.89815,0.78143 14.64773,2.22485 0.96916,0.28654 1.94631,0.59831 2.91546,0.94383 0.96915,0.34552 1.93006,0.70723 2.89921,1.11175 2.76122,1.12007 5.44892,2.41396 8.0463,3.87419 0.004,-0.002 0.007,-0.004 0.01,-0.006 6.58003,-4.26828 13.68457,-7.66739 21.13677,-10.11272 4.97282,-1.61315 10.1609,-2.4655 15.38844,-2.52817 -9.60725,-7.44141 -20.12501,-14.4955 -31.18177,-18.16985 -4.81135,-1.64774 -9.84888,-2.54033 -14.93346,-2.646 h -0.43062 c -0.84274,0 -1.68543,0.025 -2.52817,0.084 -0.97759,0.0505 -1.9552,0.14276 -2.9412,0.27759 -11.18316,1.50009 -22.70335,7.82182 -34.24891,21.61749 0.8596,-14.89124 -3.27718,-28.27507 -9.34492,-39.60995 -0.48035,-0.90173 -0.97006,-1.7447 -1.48413,-2.67171 -0.51407,-0.92702 -1.02768,-1.7694 -1.55861,-2.61214 -3.82026,-6.1276 -8.21087,-11.88087 -13.11357,-17.18254 C 269.43241,113.28995 262.9918,107.54972 256,102.53661 Z m 73.67604,16.76424 c 3.07961,6.63246 5.508,13.54894 7.24329,20.65335 0.56464,2.22484 1.09587,4.46551 1.57623,6.7409 0.0805,0.36536 0.14805,0.73927 0.22613,1.10634 3.49178,2.66918 6.85211,5.50609 10.06939,8.49993 0.41682,0.0731 0.83485,0.13689 1.24987,0.22072 2.40548,0.48028 4.77851,1.11074 7.10518,1.88768 12.54841,4.16314 23.93289,12.25323 32.46143,18.82661 l 0.18552,0.14353 0.23968,0.18553 C 375.6396,152.97489 354.75884,132.81791 329.67604,119.30085 Z m -147.35208,9.4e-4 c -25.08144,13.51672 -45.9612,33.67268 -60.35401,58.26186 l 0.23697,-0.18416 0.18552,-0.14353 c 8.52854,-6.57338 19.91302,-14.66347 32.46143,-18.82661 2.32667,-0.77695 4.6997,-1.40741 7.10518,-1.88768 0.41502,-0.0838 0.83305,-0.14762 1.24987,-0.22072 3.21706,-2.99372 6.57665,-5.8296 10.06803,-8.49858 0.0782,-0.36759 0.14682,-0.74183 0.22749,-1.10769 0.48036,-2.2754 1.01159,-4.51607 1.57623,-6.7409 1.73519,-7.10401 4.16394,-14.01988 7.24329,-20.65199 z m 5.40573,2.20454 c -2.98924,6.38804 -5.34049,13.0545 -7.01987,19.9045 -1.21354,4.70249 -2.23372,9.59989 -3.04275,14.52992 10.37414,1.4158 20.3023,6.56375 29.58931,15.34512 1.08162,-10.93881 4.36686,-21.54538 9.65772,-31.18043 0.18134,-0.33795 0.36328,-0.68406 0.5525,-1.02238 -4.1355,-3.82603 -8.62091,-7.2564 -13.39651,-10.24546 -5.05071,-3.24533 -10.55827,-5.7161 -16.3404,-7.33131 z m 136.54062,0 c -5.78213,1.61519 -11.28969,4.08598 -16.3404,7.33131 -4.7756,2.98906 -9.26102,6.41942 -13.39651,10.24542 0.18922,0.33832 0.37116,0.68443 0.5525,1.02238 5.29086,9.63505 8.5761,20.24162 9.65772,31.18043 9.28701,-8.78137 19.21517,-13.92932 29.58931,-15.34512 -0.80903,-4.93003 -1.82921,-9.82743 -3.04275,-14.52992 -1.67938,-6.85 -4.03063,-13.51646 -7.01987,-19.9045 z M 256,142.75185 c 0,0 -8.13255,4.97214 -15.7175,16.18062 -0.64049,0.92702 -1.26404,1.90387 -1.88767,2.92358 -0.62363,1.01973 -1.25486,2.12473 -1.87006,3.25401 -3.56495,6.65097 -6.1053,13.80166 -7.53445,21.21124 -0.23596,1.2304 -0.4548,2.52805 -0.64862,3.77535 -0.19384,1.24723 -0.33806,2.41839 -0.46448,3.66565 -0.53058,5.10056 -0.63955,10.23599 -0.32771,15.35459 -0.024,-0.0292 -0.049,-0.0576 -0.0731,-0.0867 0.002,0.0375 0.004,0.0749 0.006,0.11239 -0.36263,-0.44053 -0.73147,-0.87584 -1.10499,-1.30674 -0.74704,-0.8618 -1.51527,-1.70474 -2.30474,-2.52683 -0.78947,-0.82208 -1.59902,-1.62414 -2.42933,-2.40495 -0.41515,-0.39041 -0.83563,-0.77528 -1.2607,-1.15508 -0.42507,-0.3798 -0.8557,-0.7536 -1.2905,-1.12258 -0.43478,-0.36899 -0.87463,-0.73345 -1.31892,-1.09143 -0.84276,-0.68263 -1.68544,-1.32319 -2.52819,-1.92153 -0.42137,-0.29918 -0.878,-0.61442 -1.34466,-0.92624 -0.46667,-0.31181 -0.94224,-0.61953 -1.40153,-0.90185 l 0.0555,-0.0325 c -6.71649,-4.22614 -14.48626,-6.47528 -22.42185,-6.49039 -4.89094,0.0333 -9.74817,0.81417 -14.40264,2.31693 -0.96072,0.30338 -1.92224,0.64134 -2.88296,0.99529 -0.96073,0.35394 -1.90389,0.74079 -2.84776,1.15373 -1.48322,0.64049 -2.94196,1.34045 -4.39147,2.09891 -0.7079,0.3652 -1.40651,0.74421 -2.09756,1.13748 -0.68262,0.37923 -1.35732,0.77629 -2.02309,1.18081 -9.20146,5.75165 -17.43369,12.92457 -24.38941,21.25323 30.98585,2.38934 47.87741,9.74241 57.30855,18.85639 -0.87576,0.65299 -1.73598,1.32243 -2.58777,2.00142 -10.52722,8.406 -19.16213,18.83552 -25.2046,30.65503 l 4.22763,3.57763 28.41798,-24.04411 28.41662,24.04411 28.24059,-23.93442 0.084,-0.0759 0.084,0.0759 28.24059,23.93442 28.41662,-24.04411 28.41798,24.04411 4.22221,-3.57222 c -6.1705,-12.07223 -15.04047,-22.69938 -25.87355,-31.19668 -0.0293,-0.023 -0.0574,-0.0475 -0.0867,-0.0704 -0.6035,-0.47102 -1.21171,-0.93619 -1.82673,-1.39477 9.43115,-9.11398 26.3227,-16.46705 57.30855,-18.85639 -6.95571,-8.32865 -15.18795,-15.50158 -24.38941,-21.25323 -0.66576,-0.40452 -1.34046,-0.80158 -2.02309,-1.18081 -0.69105,-0.39327 -1.38966,-0.77228 -2.09756,-1.13748 -1.44951,-0.75846 -2.90824,-1.45842 -4.39147,-2.09891 -0.94387,-0.41294 -1.88703,-0.79979 -2.84775,-1.15373 -0.96073,-0.35395 -1.92224,-0.69191 -2.88297,-0.99529 -4.65447,-1.50276 -9.5117,-2.28372 -14.40264,-2.31693 -7.93559,0.0151 -15.70536,2.26426 -22.42184,6.49039 l 0.0555,0.0325 c -0.45929,0.28232 -0.93486,0.59004 -1.40153,0.90185 -0.46666,0.31182 -0.92329,0.62707 -1.34466,0.92624 -0.84275,0.59834 -1.68543,1.23891 -2.52818,1.92153 -0.4443,0.35798 -0.88416,0.72244 -1.31893,1.09143 -0.43479,0.36898 -0.86543,0.74279 -1.2905,1.12258 -0.42507,0.3798 -0.84555,0.76467 -1.2607,1.15508 -0.83031,0.78082 -1.63986,1.58287 -2.42933,2.40495 -0.78946,0.8221 -1.5577,1.66504 -2.30474,2.52683 -0.37352,0.4309 -0.74236,0.86621 -1.10499,1.30674 0.002,-0.0375 0.004,-0.0749 0.006,-0.11239 -0.0241,0.0292 -0.0491,0.0575 -0.0731,0.0867 0.31184,-5.11859 0.20288,-10.25402 -0.32771,-15.35459 -0.12641,-1.24726 -0.27064,-2.41842 -0.46447,-3.66565 -0.19383,-1.24729 -0.41267,-2.54495 -0.64863,-3.77535 -1.42915,-7.40958 -3.9695,-14.56027 -7.53445,-21.21124 -0.61519,-1.12928 -1.24643,-2.23428 -1.87005,-3.25401 -0.62364,-1.0197 -1.24719,-1.99656 -1.88768,-2.92358 C 264.13255,147.72399 256,142.75185 256,142.75185 Z m -138.00581,42.03521 c -11.36665,22.02276 -17.29776,46.446 -17.29778,71.22911 -1e-5,85.77181 69.53178,155.30361 155.30359,155.3036 85.77181,10e-6 155.3036,-69.53179 155.30359,-155.3036 -2e-5,-24.78311 -5.93113,-49.20635 -17.29778,-71.22911 h -6.97653 c -4.461,0.0598 -8.89071,0.75515 -13.15547,2.06507 l -0.44551,0.13406 c 12.29309,20.91151 18.78853,44.74138 18.78868,69.02998 -1.4e-4,34.76364 -13.29162,68.21178 -37.15217,93.49388 v -38.47924 c 0,-4.41538 -0.33043,-8.75821 -0.9655,-13.00921 L 341.15914,308.97387 312.74117,284.92164 284.32455,308.97387 256,284.99748 l -28.32455,23.97639 -28.41662,-24.05223 -28.41797,24.05223 -12.94693,-10.95905 c -0.63575,4.25317 -0.96686,8.59826 -0.96686,13.01599 v 38.47111 c -23.85568,-25.28132 -37.14403,-58.72603 -37.14406,-93.48575 2.9e-4,-24.28409 6.49551,-48.11415 18.7914,-69.02998 l -0.44822,-0.13406 c -4.26476,-1.30992 -8.69447,-2.00523 -13.15547,-2.06507 z m 81.26464,71.13567 -25.73001,21.7353 c -1.57114,1.32964 -3.8725,1.32964 -5.44364,0 l -3.34744,-2.8315 c -2.63771,5.84066 -4.65691,11.98523 -5.97988,18.36484 l 12.083,10.22918 25.69479,-21.75156 c 0.78558,-0.66481 1.75472,-0.99664 2.72318,-0.99664 0.96847,0 1.93625,0.33183 2.72182,0.99664 l 25.6948,21.75156 25.60273,-21.67571 c 0.78557,-0.66482 1.75358,-0.99665 2.72182,-0.99665 0.96824,0 1.93625,0.33183 2.72182,0.99665 l 25.60273,21.67571 25.6948,-21.75156 c 0.78557,-0.66481 1.75335,-0.99664 2.72182,-0.99664 0.96846,0 1.9376,0.33183 2.72318,0.99664 l 25.69479,21.75156 12.07622,-10.2224 c -1.32256,-6.38022 -3.34239,-12.52498 -5.97987,-18.36621 l -3.34067,2.82609 c -1.57114,1.32964 -3.8725,1.32964 -5.44364,0 l -25.73001,-21.7353 -25.66096,21.7353 c -1.57113,1.32964 -3.87249,1.32964 -5.44364,0 L 256,255.99857 230.36343,277.65803 c -1.57115,1.32964 -3.87252,1.32964 -5.44364,0 z" />
    </g>
    <g
       id="g6574"
       transform="matrix(1.2689161,0,0,1.2708009,-245.24965,-44.313503)"
       style="fill:#ff00ff">
      <path
         style="fill:#ffffff;stroke-width:0.270977"
         d="m 174.40677,182.33564 -0.90516,-4.91448 -0.5802,-2.94989 -1.89685,-0.49795 -2.05989,-0.50508 -3.25174,3.65023 -3.29416,3.6582 -10.86006,-6.2304 -0.22644,-0.21024 1.65159,-4.56463 1.65161,-4.56463 -1.56065,-1.5305 -1.56065,-1.53049 -3.92917,1.41854 -4.64798,1.59153 -0.71882,0.17302 -3.14025,-5.44781 -2.99186,-5.6879 7.06966,-6.06845 0.3417,-0.27098 -0.52757,-1.88035 -0.73374,-2.06809 -9.66008,-1.87759 -0.16582,-6.35197 v -6.35198 l 0.25887,-0.15999 4.9383,-0.97996 4.7608,-0.90132 1.09492,-4.06892 -3.73648,-3.13504 -3.76389,-3.16244 6.48563,-11.19937 4.66404,1.62586 4.70966,1.62587 1.57693,-1.3427 1.32251,-1.34271 -1.68547,-4.7854 -1.56107,-4.909818 11.03246,-6.254498 6.59413,7.713527 1.91197,-0.418977 1.87016,-0.471977 0.45582,-2.426283 0.92068,-5.046729 0.46487,-2.620435 6.41456,-0.09197 6.47517,-0.07395 0.99277,5.105188 1.02331,5.141147 1.84821,0.491907 1.75707,0.437934 0.86892,-0.987891 3.25601,-3.887105 2.59179,-2.913009 11.04088,6.507755 -1.6559,4.877934 -1.6559,4.64409 1.307,1.32695 1.58815,1.32852 4.83915,-1.66096 4.55799,-1.66252 0.22212,0.23831 6.19018,10.93196 -3.76605,3.36285 -3.6835,3.14848 0.53243,1.99524 0.53242,1.99523 2.60912,0.45889 4.98018,0.8855 2.37105,0.42664 v 6.4403 6.44032 l -3.31947,0.60225 -4.94535,0.92118 -1.62587,0.31892 -0.45253,1.6141 -0.47421,2.07768 -0.0217,0.46359 3.59046,3.03194 3.67802,3.25407 -5.97402,10.61556 -0.35628,0.48618 -1.62074,-0.52085 -4.63139,-1.61621 -3.01064,-1.09537 -1.50598,1.5365 -1.50598,1.53649 1.61467,4.45012 1.50249,4.74246 -10.94119,6.37469 -2.92409,-3.26547 -3.14928,-3.65483 -0.43948,-0.40331 -1.97016,0.54597 -2.02889,0.62027 -0.79911,4.27447 -0.88047,4.80985 -0.1401,0.6097 h -6.44961 -6.4496 l -0.32496,-1.96458 z m 11.49429,-1.21941 0.86023,-4.67436 0.75095,-3.93427 6.28294,-1.62436 0.55043,-0.16412 2.94248,3.47108 3.15735,3.55534 7.64419,-4.25935 -1.38275,-4.58803 -1.59488,-4.38262 2.53626,-2.53625 2.53625,-2.53625 4.39999,1.57749 4.58454,1.38625 4.2897,-7.5896 -3.54096,-3.19461 -3.54097,-2.9559 0.12832,-0.54196 1.6603,-6.30298 9.14442,-1.69087 0.0103,-9.21745 -9.16236,-1.684 -0.62708,-2.24459 -0.95258,-3.30044 -0.39834,-1.12899 3.63947,-3.04446 3.63946,-3.28139 -4.30236,-7.60049 -4.72824,1.45432 -4.53105,1.65823 -2.44082,-2.42922 -2.44081,-2.42924 1.63797,-4.56288 1.43103,-4.763125 -3.84737,-2.287642 -3.64044,-2.087417 -0.33653,0.238058 -3.21124,3.693025 -3.20394,3.443731 -3.30999,-0.789417 -2.98074,-0.778183 -0.7326,-4.020431 -0.89296,-4.901112 -0.16036,-0.880682 h -4.54545 -4.54543 l -0.87296,4.785996 -0.99133,4.977495 -1.20778,0.36571 -3.12635,0.821044 -2.03692,0.64684 -3.15984,-3.766208 -3.38225,-3.766212 -3.99916,2.185532 -3.77674,2.185533 1.23391,3.437255 1.95644,6.07432 -2.45451,2.3358 -2.32848,2.26308 -4.54536,-1.65875 -4.66335,-1.54075 -4.34971,7.75674 3.66664,3.22567 3.59046,3.10553 -0.64606,1.97114 -0.82624,2.96602 -0.39556,1.41502 -0.21537,0.34848 -4.44569,0.79232 -4.64892,0.79764 0.0103,9.21855 9.18982,1.72568 0.6188,2.2383 0.92251,3.27993 0.40898,1.1469 -3.57675,3.02226 -3.65295,3.21407 4.34201,7.74902 4.51613,-1.48547 4.40584,-1.59577 2.54139,2.5663 2.5414,2.56631 -1.45316,3.97714 -1.63266,4.42013 -0.1795,0.44296 3.83926,2.19907 4.04312,2.19907 2.61344,-2.86772 2.97179,-3.5353 0.56217,-0.66757 2.39382,0.6937 3.41918,0.85767 1.02538,0.16395 0.25898,1.25501 0.87515,4.70996 0.61616,3.45497 h 4.53843 4.53844 z"
         id="path4679" />
      <path
         style="fill:#000000;stroke-width:0.124176"
         d="m 169.73598,163.22062 c 0,0 0.47059,-1.32405 1.01697,-2.78625 0.54637,-1.46219 0.99341,-2.70247 0.99341,-2.75618 0,-0.0538 -0.28498,-0.36422 -0.63328,-0.69001 -1.10252,-1.03129 -1.57352,-2.41186 -1.44496,-4.23542 0.1305,-1.85116 0.86063,-3.07181 2.23866,-3.74267 1.09767,-0.53435 2.08641,-0.64021 5.61377,-0.60098 l 3.10441,0.0345 v 7.38848 7.38849 h -1.49012 -1.49012 l -0.0337,-2.4564 -0.0337,-2.4564 -1.4458,0.035 -1.4458,0.0349 -0.83475,2.42144 -0.83474,2.42144 z m 7.84666,-9.88119 v -2.36851 l -1.79195,0.0402 c -1.94534,0.0437 -2.14574,0.10886 -2.72701,0.8874 -0.31079,0.41626 -0.41793,1.71422 -0.19812,2.40015 0.36864,1.1504 0.91022,1.39801 3.07174,1.4044 l 1.64534,0.005 z m 3.84946,2.49268 v -7.45057 h 2.90916 c 3.14338,0 4.44712,0.12364 5.51439,0.52296 1.42682,0.53384 2.35896,1.87351 2.71122,3.89657 0.25102,1.44161 0.16927,5.45284 -0.13346,6.54884 -0.48379,1.75147 -1.41555,2.92853 -2.69813,3.40839 -1.06688,0.39918 -2.36965,0.46232 -5.45611,0.46232 h -2.84707 z m 6.21732,4.64313 c 0.85056,-0.2519 1.49562,-0.89665 1.74021,-1.7394 0.12706,-0.43779 0.17601,-1.33173 0.17601,-3.21416 0,-2.54401 -0.008,-2.62288 -0.31438,-3.22859 -0.24966,-0.49305 -0.44141,-0.68457 -0.93133,-0.93022 -0.56227,-0.28192 -0.75997,-0.30943 -2.23122,-0.31044 l -1.61429,-8.6e-4 -0.0326,4.65617 c -0.0179,2.56089 -0.006,4.72622 0.0271,4.81182 0.0905,0.2359 2.34038,0.20471 3.18044,-0.0441 z"
         id="path2711" />
    </g>
  </g>
</svg>
